<?xml version="1.0" standalone="no"?>
<!DOCTYPE svg PUBLIC "-//W3C//DTD SVG 20010904//EN"
 "http://www.w3.org/TR/2001/REC-SVG-20010904/DTD/svg10.dtd">
<svg version="1.0" xmlns="http://www.w3.org/2000/svg"
 width="306.000000pt" height="816.000000pt" viewBox="0 0 306.000000 816.000000"
 preserveAspectRatio="xMidYMid meet">

<g transform="translate(0.000000,816.000000) scale(0.100000,-0.100000)"
fill="#000000" stroke="none">
<path d="M2258 7422 c2 -18 -1 -38 -7 -46 -9 -11 -7 -22 8 -47 31 -53 79 -209
91 -301 9 -62 9 -242 1 -708 -14 -792 -24 -1053 -41 -1058 -7 -3 -7 -9 2 -19
10 -13 9 -18 -10 -33 -17 -14 -22 -29 -22 -64 0 -25 5 -46 10 -46 6 0 10 -9
10 -20 0 -11 -4 -20 -10 -20 -5 0 -10 9 -10 20 0 13 -7 20 -20 20 -15 0 -20
-7 -20 -29 0 -49 -12 -91 -26 -91 -11 0 -14 -25 -14 -119 0 -69 -4 -122 -10
-126 -5 -3 -10 -15 -10 -26 0 -10 -4 -19 -10 -19 -5 0 -10 -9 -10 -20 0 -11 5
-20 10 -20 6 0 10 -11 10 -24 0 -13 6 -27 13 -29 9 -4 8 -8 -3 -16 -10 -7 -11
-11 -2 -11 9 0 12 -27 12 -100 0 -93 1 -100 20 -100 18 0 20 -7 20 -60 0 -33
2 -60 4 -60 2 0 11 -3 20 -6 12 -4 16 0 16 15 0 12 5 21 10 21 6 0 10 -9 10
-20 0 -11 -4 -20 -10 -20 -5 0 -10 -18 -10 -40 0 -22 5 -40 10 -40 6 0 10 -27
10 -60 0 -36 4 -60 11 -60 6 0 9 -10 7 -22 -2 -13 4 -28 12 -35 8 -7 10 -13 5
-13 -7 0 -8 -28 -4 -82 4 -45 8 -130 8 -188 1 -58 5 -204 11 -325 14 -319 30
-744 31 -865 1 -64 5 -97 10 -85 6 17 8 17 8 3 1 -10 6 -18 11 -18 6 0 10 -9
10 -20 0 -11 -7 -20 -15 -20 -11 0 -15 -12 -15 -46 0 -27 4 -43 10 -39 6 3 10
15 10 25 0 23 34 20 38 -4 2 -11 -4 -19 -17 -23 -27 -7 -27 -33 -1 -33 12 0
20 7 21 18 1 11 4 9 9 -8 4 -14 9 -196 9 -405 1 -230 5 -386 11 -395 7 -10 9
937 7 2755 l-3 2770 -22 90 c-28 115 -97 255 -160 325 -49 54 -49 55 -44 22z
m2 -2997 c0 -8 -4 -15 -10 -15 -5 0 -10 7 -10 15 0 8 5 15 10 15 6 0 10 -7 10
-15z m177 -2047 c-3 -7 -5 -2 -5 12 0 14 2 19 5 13 2 -7 2 -19 0 -25z"/>
<path d="M2471 1414 c0 -11 3 -14 6 -6 3 7 2 16 -1 19 -3 4 -6 -2 -5 -13z"/>
</g>
</svg>
