<?xml version="1.0" standalone="no"?>
<!DOCTYPE svg PUBLIC "-//W3C//DTD SVG 20010904//EN"
 "http://www.w3.org/TR/2001/REC-SVG-20010904/DTD/svg10.dtd">
<svg version="1.0" xmlns="http://www.w3.org/2000/svg"
 width="195.000000pt" height="739.000000pt" viewBox="0 0 195.000000 739.000000"
 preserveAspectRatio="xMidYMid meet">

<g transform="translate(0.000000,739.000000) scale(0.100000,-0.100000)"
fill="#000000" stroke="none">
<path d="M860 7380 c-111 -7 -184 -23 -196 -42 -5 -7 -2 -8 7 -3 12 7 12 5 1
-6 -11 -12 -14 -12 -22 1 -7 12 -12 12 -21 3 -10 -10 -7 -14 12 -22 13 -5 27
-7 32 -4 4 2 7 0 7 -6 0 -5 -6 -12 -12 -14 -8 -3 -5 -6 5 -6 28 -1 14 -26 -14
-26 -13 0 -30 -4 -36 -8 -7 -5 -17 -6 -21 -3 -5 3 -17 -5 -27 -17 -16 -19 -18
-38 -16 -169 1 -85 -2 -148 -7 -148 -17 0 -35 -117 -28 -186 9 -86 0 -134 -25
-134 -22 0 -27 -35 -6 -44 10 -5 10 -7 0 -12 -15 -7 -18 -64 -4 -64 5 0 12 8
14 18 4 15 5 15 6 -1 0 -11 -7 -21 -18 -24 -16 -4 -20 -18 -26 -81 -4 -43 -10
-79 -15 -82 -12 -8 -22 -120 -10 -120 5 0 10 -9 10 -20 0 -11 -4 -20 -9 -20
-5 0 -7 -9 -4 -21 4 -15 0 -22 -16 -26 -16 -4 -23 -18 -33 -64 -6 -32 -15 -56
-19 -54 -3 3 -9 -14 -13 -37 -4 -26 -3 -44 4 -48 7 -5 9 -21 5 -44 -7 -34 -9
-36 -46 -36 -32 0 -39 -3 -39 -20 0 -11 -4 -20 -10 -20 -5 0 -10 -9 -10 -20 0
-11 -7 -20 -15 -20 -8 0 -15 -9 -15 -20 0 -13 -7 -20 -20 -20 -12 0 -20 -7
-20 -18 0 -9 -11 -26 -25 -36 -13 -10 -24 -28 -24 -40 0 -11 -3 -39 -6 -61 -4
-22 -8 -81 -9 -132 -3 -96 -16 -134 -41 -113 -7 6 -27 8 -43 5 -26 -4 -31 -2
-35 17 -2 13 -5 -678 -6 -1534 -1 -1385 0 -1558 14 -1558 15 0 19 15 15 58 -1
12 3 22 9 22 7 0 11 25 11 63 0 38 4 57 9 49 5 -8 6 -33 4 -57 -5 -40 8 -67
22 -45 3 5 1 10 -4 10 -6 0 -11 15 -11 33 0 22 3 28 9 18 6 -10 9 -5 9 15 0
44 11 146 19 174 3 14 6 45 5 70 -2 44 1 54 28 113 14 28 50 38 50 13 0 -8 16
-16 39 -20 27 -4 42 -12 46 -26 3 -11 15 -20 26 -20 10 0 19 -4 19 -10 0 -5 9
-10 20 -10 11 0 20 -4 20 -10 0 -5 9 -10 20 -10 16 0 20 -7 20 -30 0 -23 4
-30 20 -30 11 0 20 -4 20 -10 0 -5 9 -10 21 -10 16 0 19 -4 14 -20 -5 -17 -2
-20 24 -20 28 0 57 -20 29 -20 -7 -1 -2 -7 11 -14 16 -9 20 -16 12 -20 -16
-10 -4 -26 14 -19 11 4 15 -3 15 -25 0 -37 17 -51 23 -20 3 19 5 17 6 -7 1
-16 8 -39 16 -49 8 -11 15 -28 15 -38 0 -10 7 -18 15 -18 10 0 15 -11 16 -32
l2 -33 6 35 c6 32 7 31 13 -25 4 -33 12 -61 18 -63 5 -2 10 -12 10 -23 0 -10
6 -19 14 -19 9 0 17 -15 21 -40 4 -22 11 -40 16 -40 5 0 9 -12 9 -27 0 -15 8
-63 17 -105 12 -58 20 -77 32 -76 8 2 18 -7 22 -22 11 -40 10 -140 -2 -140
-12 0 -1 -191 11 -200 25 -17 17 -649 -8 -658 -7 -2 -12 -21 -12 -41 0 -21 -3
-41 -6 -44 -4 -4 -6 -43 -5 -88 1 -48 -1 -79 -7 -75 -5 3 -15 -48 -22 -119
-12 -110 -16 -125 -32 -125 -15 0 -18 -9 -18 -59 0 -45 -4 -60 -16 -65 -11 -4
-14 -13 -10 -29 9 -39 -7 -51 -71 -50 -71 1 -135 12 -128 23 6 9 -50 40 -72
40 -7 0 -13 5 -13 10 0 6 -6 10 -14 10 -7 0 -24 11 -37 23 -13 13 -36 32 -51
41 -15 10 -30 26 -33 37 -9 26 -31 24 -39 -3 -4 -18 -8 -20 -18 -10 -9 9 -9
15 -1 23 6 6 9 19 6 28 -4 14 -3 14 6 1 13 -19 14 -1 1 20 -8 12 -13 13 -30 3
-11 -7 -27 -13 -35 -13 -9 0 -13 -5 -10 -10 4 -6 14 -9 22 -8 9 2 18 -3 21
-11 3 -8 0 -11 -7 -7 -6 4 -11 4 -11 -1 0 -9 85 -103 94 -103 3 0 16 -10 30
-22 49 -46 136 -103 136 -91 0 5 4 3 8 -3 16 -25 136 -73 194 -77 9 -1 15 -5
12 -9 -9 -15 99 -23 301 -23 207 0 211 1 310 32 98 31 213 89 290 148 137 104
260 283 313 455 32 102 32 82 48 4070 7 1795 3 1920 -68 2100 -70 178 -231
359 -406 457 -68 38 -214 91 -267 97 -16 2 -41 6 -55 9 -47 11 -185 14 -290 7z
m-253 -252 c-3 -7 -5 -2 -5 12 0 14 2 19 5 13 2 -7 2 -19 0 -25z m-590 -4820
c-3 -7 -5 -2 -5 12 0 14 2 19 5 13 2 -7 2 -19 0 -25z m760 -200 c-3 -7 -5 -2
-5 12 0 14 2 19 5 13 2 -7 2 -19 0 -25z m80 -1500 c-2 -13 -4 -3 -4 22 0 25 2
35 4 23 2 -13 2 -33 0 -45z"/>
<path d="M582 7298 c3 -7 17 -15 32 -19 22 -6 27 -5 22 7 -3 9 -6 18 -6 20 0
2 -12 4 -26 4 -15 0 -24 -5 -22 -12z"/>
<path d="M500 6670 c0 -22 5 -40 10 -40 6 0 10 18 10 40 0 22 -4 40 -10 40 -5
0 -10 -18 -10 -40z"/>
<path d="M2 2160 c0 -14 2 -19 5 -12 2 6 2 18 0 25 -3 6 -5 1 -5 -13z"/>
<path d="M830 1790 c0 -11 5 -20 10 -20 6 0 10 9 10 20 0 11 -4 20 -10 20 -5
0 -10 -9 -10 -20z"/>
</g>
</svg>
