<?xml version="1.0" standalone="no"?>
<!DOCTYPE svg PUBLIC "-//W3C//DTD SVG 20010904//EN"
 "http://www.w3.org/TR/2001/REC-SVG-20010904/DTD/svg10.dtd">
<svg version="1.0" xmlns="http://www.w3.org/2000/svg"
 width="800.000000pt" height="600.000000pt" viewBox="0 0 800.000000 600.000000"
 preserveAspectRatio="xMidYMid meet">

<g transform="translate(0.000000,600.000000) scale(0.100000,-0.100000)"
fill="#000000" stroke="none">
<path d="M5890 4156 c0 -2 8 -10 18 -17 15 -13 16 -12 3 4 -13 16 -21 21 -21
13z"/>
<path d="M5979 4003 c335 -663 316 -1466 -49 -2098 -13 -22 -28 -49 -34 -60
-6 -11 -26 -42 -45 -68 -18 -27 -34 -55 -35 -62 -1 -8 -6 -18 -11 -22 -4 -4
-5 -1 -1 7 8 16 -1 5 -56 -70 -37 -49 -169 -191 -237 -254 -25 -23 -54 -50
-65 -62 -74 -73 -307 -225 -466 -304 -65 -32 -117 -60 -115 -62 2 -2 -4 -4
-13 -5 -9 0 -64 -17 -122 -37 -389 -137 -817 -160 -1235 -67 -99 22 -301 88
-354 115 -18 10 -39 15 -47 12 -8 -3 -13 -2 -10 2 3 5 -29 25 -70 45 -41 20
-74 32 -74 27 0 -12 80 -64 87 -56 3 2 15 -4 27 -15 66 -63 366 -186 581 -239
184 -45 272 -54 510 -54 231 0 330 10 500 50 340 81 626 223 900 448 74 61
275 262 275 275 0 5 4 11 8 13 4 2 28 30 53 63 218 286 358 608 419 961 27
153 37 422 21 575 -19 183 -66 403 -84 392 -6 -3 -7 -1 -3 6 4 6 2 28 -5 49
-33 101 -54 159 -66 182 -7 14 -13 31 -13 38 0 7 -5 10 -12 6 -7 -4 -8 -3 -4
4 6 10 -60 149 -104 217 -10 17 -30 51 -43 77 -13 26 -27 45 -30 41 -4 -3 -7
1 -7 10 0 10 -4 17 -10 17 -5 0 12 -44 39 -97z"/>
<path d="M2860 1086 c0 -2 7 -9 15 -16 9 -7 15 -8 15 -2 0 5 -7 12 -15 16 -8
3 -15 4 -15 2z"/>
<path d="M2906 1048 c3 -5 10 -6 15 -3 13 9 11 12 -6 12 -8 0 -12 -4 -9 -9z"/>
</g>
</svg>
