<?xml version="1.0" standalone="no"?>
<!DOCTYPE svg PUBLIC "-//W3C//DTD SVG 20010904//EN"
 "http://www.w3.org/TR/2001/REC-SVG-20010904/DTD/svg10.dtd">
<svg version="1.0" xmlns="http://www.w3.org/2000/svg"
 width="205.000000pt" height="751.000000pt" viewBox="0 0 205.000000 751.000000"
 preserveAspectRatio="xMidYMid meet">

<g transform="translate(0.000000,751.000000) scale(0.100000,-0.100000)"
fill="#000000" stroke="none">
<path d="M1834 7058 c28 -37 28 -58 0 -58 -26 0 -9 -25 22 -31 16 -4 21 -7 11
-8 -10 0 -27 -6 -37 -11 -18 -10 -18 -12 4 -78 48 -142 49 -150 36 -1318 -6
-599 -9 -1159 -6 -1244 4 -85 11 -398 17 -695 6 -297 15 -544 19 -549 5 -5 6
-31 3 -57 -4 -33 -2 -49 5 -49 15 0 26 43 17 69 -4 12 -2 21 4 21 6 0 11 -16
11 -35 0 -23 7 -41 20 -52 21 -18 27 -53 10 -53 -13 0 -13 -27 0 -32 6 -2 12
-267 16 -743 4 -407 8 -742 10 -744 3 -3 3 1185 2 2640 -3 2152 -6 2655 -16
2704 -21 91 -43 155 -72 205 -14 25 -32 59 -39 77 -7 17 -24 42 -39 55 l-25
23 27 -37z"/>
</g>
</svg>
